<?xml version="1.0" encoding="utf-8"?>
<!-- Generator: Adobe Illustrator 16.0.3, SVG Export Plug-In . SVG Version: 6.00 Build 0)  -->
<!DOCTYPE svg PUBLIC "-//W3C//DTD SVG 1.1//EN" "http://www.w3.org/Graphics/SVG/1.1/DTD/svg11.dtd">
<svg version="1.1" id="Layer_1" xmlns="http://www.w3.org/2000/svg" xmlns:xlink="http://www.w3.org/1999/xlink" x="0px" y="0px"
	 width="1335.7px" height="288.5px" viewBox="0 0 1335.7 288.5" style="enable-background:new 0 0 1335.7 288.5;"
	 xml:space="preserve">
<style type="text/css">
<![CDATA[
	.st0{fill:#991B1E;}
	.st1{fill:#333333;}
]]>
</style>
<path class="st1" d="M44.3,128.5h57.2v40.3H44.3v116.5H0V3.2h117.3v40.3H44.3V128.5z"/>
<path class="st1" d="M321.4,81v204.3h-39.9V3.2h55.6l45.5,168.8V3.2h39.5v282.1h-45.5L321.4,81z"/>
<path class="st1" d="M441.1,3.2h137v40.3h-46.3v241.8h-44.3V43.5h-46.3V3.2z"/>
<path class="st1" d="M725.6,285.3h-44.7l-7.7-51.2h-54.4l-7.7,51.2h-40.7L615.6,3.2h64.9L725.6,285.3z M624.4,195.8h42.7L645.8,53.2
	L624.4,195.8z"/>
<path class="st1" d="M805.8,0c43.1,0,65.3,25.8,65.3,70.9v8.9h-41.9V68.1c0-20.1-8.1-27.8-22.2-27.8c-14.1,0-22.2,7.7-22.2,27.8
	c0,58,86.6,68.9,86.6,149.5c0,45.1-22.6,70.9-66.1,70.9c-43.5,0-66.1-25.8-66.1-70.9v-17.3h41.9v20.1c0,20.2,8.9,27.4,23,27.4
	c14.1,0,23-7.3,23-27.4c0-58-86.6-68.9-86.6-149.5C740.5,25.8,762.7,0,805.8,0z"/>
<path class="st1" d="M935.5,191.8l-56-188.6h46.3l33.8,128.5L993.6,3.2h42.3l-56,188.6v93.5h-44.3V191.8z"/>
<path class="st0" d="M1114.1,128.1h62.1v89.5c0,45.1-22.6,70.9-66.1,70.9c-43.5,0-66.1-25.8-66.1-70.9V70.9
	c0-45.1,22.6-70.9,66.1-70.9c43.5,0,66.1,25.8,66.1,70.9v27.4h-41.9V68.1c0-20.1-8.9-27.8-23-27.8c-14.1,0-23,7.7-23,27.8v152.3
	c0,20.2,8.9,27.4,23,27.4c14.1,0,23-7.3,23-27.4v-52h-20.1V128.1z"/>
<path class="st0" d="M1201.1,70.9c0-45.1,23.8-70.9,67.3-70.9c43.5,0,67.3,25.8,67.3,70.9v146.7c0,45.1-23.8,70.9-67.3,70.9
	c-43.5,0-67.3-25.8-67.3-70.9V70.9z M1245.4,220.4c0,20.2,8.9,27.8,23,27.8c14.1,0,23-7.7,23-27.8V68.1c0-20.1-8.9-27.8-23-27.8
	c-14.1,0-23,7.7-23,27.8V220.4z"/>
<g>
	<path class="st1" d="M189.5,3.4c-0.7,1.8-2.7,4.2-5,4.5l-0.7,3.1l0.5,0.1l-0.2,0.6l-0.8-0.2l-0.3,1.1l-0.8-0.2l-0.2,0.9l-10.9-2.6
		c-0.5-0.1-0.9,0.2-1,0.6l-0.9,3.6c-0.1,0.5,0.2,0.9,0.6,1l2.6,0.6l8,6.5l0.8,0.2l-4.5,18.9l-0.7-0.2c-1.3,5.6-6.3,7-9.9,8
		l-4.8,20.1l-0.6-0.1l-1.1,4.5l-0.1,0c-0.5-0.1-0.9,0.2-1,0.6l-0.2,0.7c-0.4,0-0.7,0.3-0.8,0.6l-8,29.3c-0.1,0.3,0,0.6,0.2,0.8
		l-0.3,1.1c-0.1,0.5,0.2,0.9,0.6,1l0.3,0.1l-0.4,1.7l-1.9-0.5c-0.5-0.1-0.9,0.2-1,0.6l-1,4.2c-0.4,0-0.8,0.3-0.9,0.7
		c-0.1,0.4,0.1,0.7,0.4,0.9l-2.5,10.4c-0.1,0-0.2,0.1-0.2,0.3l-0.4,1.6c0,0.1,0,0.2,0.1,0.3l-0.1,0.5l-0.3-0.1l-0.8,0.7l1.3,0.3
		l0.3-1.3l0.6,0.1c0.2,0,0.4-0.1,0.4-0.3l0.1-0.4l0.3,0.1c0.1,0,0.1,0,0.2-0.1l0,0c0,0.3,0.1,0.5,0.2,0.6c0,0.2-0.1,0.3-0.1,0.5
		l2.2,0.5l-15.3,64.2c0,0-0.4,0.8-0.2,1.5c0.2,0.8,0.5,1.3,0.5,1.3l2.4,3.3l-0.4,1.5l1.6,1.8l0.3-1.2l2,2.8l-0.3,1.1l0.4,0
		c-0.5,3.1-1.2,17.9-1.3,20.1c-0.1,2.3-0.3,4.4-1.4,6c-1.1,1.6-2.9,3.7-3.5,7.3c-0.5,3.6-5,39.4-4.1,40.1c0.1,0.1,0.2,0.2,0.3,0.3
		c-0.3,0-0.6,0.2-0.5,0.5c0.1,0.6,0.4,1.2,3.5,1.3c3,0.1,23.2,2.3,25.1,2.6c2,0.3,2.4-0.8,2.1-1.3c-0.1,0-0.2,0-0.3,0
		c0.3-0.4,0.4-1.1,0.2-2.3c-0.5-2.7-6.8-70.2-7-72.9l0.5-2.6l1.2,0.3c0.3,0.1,0.6,0,0.8-0.3l0,0.1c1,0.6,2,1.1,3.8,0.4
		c1.7-0.7,4,0.5,6,1.7c2,1.2,7.9,5,11.3,7.5c3.4,2.4,5.2,1.1,6.5,0.1c1.3-1,3.1-5.3,3.1-8c0-2.7-1.7-3.1-2.2-3.2
		c-0.5-0.1-1.7-0.4-2.8-1c-1.1-0.6-11.1-8.1-13-9.6c-1.9-1.4-2.8-2.8-3.5-4.2c2.5-0.9,4-2,4.4-3.7c0.4-1.7,1.3-5.9,1.9-8.5
		c0.6-2.3-0.5-4.1-1.9-5.3l0.5-2.2l0.9-0.1l2.9,1.1l0.4-0.5l-3.8-2.1l0-0.1c0.1-0.5-0.2-0.9-0.6-1l-5-1.2l0.3-1.1l1.6,0.4l0.5-2
		c17.1,1.3,38.5-3.3,57-22l-1.5-1.6l-8.6-8.9l-2.9-3c-16.4,14.8-32,17.4-45.3,16.3l3-15.3l0,0c0.5,0.1,0.9-0.2,1-0.6l0.5-2.3
		l0.3,0.1c0.5,0.1,0.9-0.2,1-0.6c0,0,0.5-2,0.5-3.3c0.1-1.3-0.3-5.4-0.2-6.5c0-1.1,0.4-3.2,0.8-4.9c0.4-1.7,6-29.2,6-29.2
		c0.1-0.3,0-0.6-0.3-0.8l0.2-1c0.1-0.2,0-0.4-0.1-0.6l0.2-0.8l-1.4-0.3l5.6-23.2l0.6,0.1l0.5-2.1l-0.6-0.1l7.9-33.2l0.5,0.1l0.5-2.3
		l-1.6-0.4c0.2-0.1,0.4-0.2,0.6-0.2l0.3-1.1l-1.4-0.3l0.5-2.2l-0.7-0.2l0.2-0.6l0.6,0.1l2-8.5L189.5,3.4
		C189.5,3.4,189.5,3.4,189.5,3.4z M178.6,20.1c-0.5-0.1-2.6-1-2-3.3l0.6-2.5c0.1-0.5,0.6-0.7,1-0.6l2.3,0.5c0.5,0.1,0.7,0.6,0.6,1
		l-1,4.3c-0.1,0.5-0.6,0.7-1,0.6L178.6,20.1z M171.1,53.1l3,0.7l-4.7,19.7l-1.8-0.4l-0.8,3.2l-1-0.2l1.1-4.5l-0.2-0.1l3-12.6l0.1,0
		L171.1,53.1z M163.9,62.5c0.1-0.3,0.4-0.5,0.7-0.4c0.3,0.1,0.5,0.4,0.4,0.7c-0.1,0.3-0.4,0.5-0.7,0.4
		C164,63.1,163.8,62.8,163.9,62.5z M163.3,65c0.1-0.3,0.4-0.5,0.7-0.4c0.3,0.1,0.5,0.4,0.4,0.7c-0.1,0.3-0.4,0.5-0.7,0.4
		C163.4,65.6,163.2,65.3,163.3,65z M162.6,67.5c0.1-0.3,0.4-0.5,0.7-0.4c0.3,0.1,0.5,0.4,0.4,0.7c-0.1,0.3-0.4,0.5-0.7,0.4
		C162.8,68.2,162.6,67.8,162.6,67.5z M144.8,128L144.8,128c0-0.1,0-0.2-0.1-0.2l-0.3-0.1l0.1-0.3c0-0.2-0.1-0.4-0.3-0.4l-0.6-0.1
		l1.9-7.9c0.6,2.9,0.4,5.2-0.3,8.6C145.1,127.6,144.9,127.8,144.8,128z M168.4,177.3c-0.6,2.7-1.5,6.8-1.9,8.5
		c-0.3,1.3-1.4,2.2-4,3.1c-0.6-0.9-1.1-1-1.6-1.1c-0.6-0.1-1.4,0.6-1.4,0.6c0.1-0.5,0-0.9-0.3-1l-2.7-0.7c0.5-0.5,1-1.1,1.2-1.3
		c0.5-0.6,0.8-1.3,3-1.2c2.2,0,4.2-1.9,5.1-3.6c0.5-1,0-1.3-0.5-0.4c-1,2.1-3.6,2.9-4.4,2.8c-0.8-0.1-2.7-0.9-3.7-2.3l0.4-2.2
		l-0.5-0.3l1.4-7.1l7.9,1.9c0.1,0,0.3,0,0.4,0C168,173.9,168.8,175.4,168.4,177.3z M165.4,81.8c0.5,0.1,0.7,0.6,0.6,1l-1.9,7.8
		c-0.1,0.5-0.6,0.7-1,0.6l-0.3-0.1l-1.4,5.9l0.3,0.1c0.5,0.1,0.7,0.6,0.6,1l-1.9,7.8c-0.1,0.5-0.6,0.7-1,0.6l-0.3-0.1l-0.2,0.9
		l-0.9-0.2l0.2-0.9l-0.4-0.1c-0.5-0.1-0.7-0.6-0.6-1l1.9-7.8c0.1-0.5,0.6-0.7,1-0.6l0.4,0.1l1.4-5.9l-0.4-0.1
		c-0.5-0.1-0.7-0.6-0.6-1l1.9-7.8c0.1-0.5,0.6-0.7,1-0.6l0.4,0.1l0.6-2.6l0.9,0.2l-0.6,2.6L165.4,81.8z M174.2,77.5l-0.7-0.2
		l0.6-2.6l-0.9-0.2l4.7-19.7l1.4,0.3l0.2-0.9l0.2,0.1L174.2,77.5z M187,20.1l0.9,0.2l-7.6,31.8l-0.2-0.1l0.3-1.3l-0.5-0.1l1.7-7.2
		l-0.9-0.2l4.5-18.9l0.7,0.2L187,20.1z"/>
	<path class="st1" d="M190,3.4l-1.3,0.3l2,8.5l0.6-0.1l0.1,0.6l-0.7,0.2l0.5,2.2l-1.4,0.3l0.3,1.1c0.2,0,0.4,0.1,0.6,0.2l-1.6,0.4
		l0.5,2.3l0.5-0.1l7.9,33.2l-0.6,0.1l0.5,2.1l0.6-0.1l5.6,23.2l-1.4,0.3l0.2,0.8c-0.1,0.2-0.1,0.4-0.1,0.6l0.2,1
		c-0.2,0.2-0.4,0.5-0.3,0.8c0,0,5.6,27.4,6,29.2c0.4,1.7,0.8,3.8,0.8,4.9c0,1.1-0.3,5.2-0.2,6.5c0.1,1.3,0.5,3.3,0.5,3.3
		c0.1,0.5,0.6,0.7,1,0.6l0.3-0.1l0.5,2.3c0.1,0.5,0.6,0.7,1,0.6l0,0l3,15.3c-13.3,1.2-28.9-1.4-45.3-16.3l-2.9,3l-8.6,8.9l-1.5,1.6
		c18.5,18.7,39.9,23.3,57,22l0.5,2l1.6-0.4l0.3,1.1l-5,1.2c-0.5,0.1-0.7,0.6-0.6,1l0,0.1l-3.8,2.1l0.4,0.5l2.9-1.1l0.9,0.1l0.5,2.2
		c-1.4,1.2-2.5,3-1.9,5.3c0.6,2.6,1.5,6.8,1.9,8.5c0.4,1.7,1.9,2.8,4.4,3.7c-0.7,1.5-1.6,2.8-3.5,4.2c-2,1.4-12,8.9-13,9.6
		c-1.1,0.6-2.3,0.9-2.8,1c-0.5,0.1-2.2,0.5-2.2,3.2c0,2.7,1.8,7,3.1,8c1.3,1,3.1,2.3,6.5-0.1s9.3-6.2,11.3-7.5c2-1.2,4.3-2.4,6-1.7
		c1.7,0.7,2.8,0.2,3.8-0.4l0-0.1c0.2,0.2,0.5,0.3,0.8,0.3l1.2-0.3l0.5,2.6c-0.2,2.7-6.5,70.2-7,72.9c-0.2,1.2-0.1,1.9,0.2,2.3
		c-0.1,0-0.2,0-0.3,0c-0.2,0.5,0.2,1.7,2.1,1.3c2-0.4,22.1-2.5,25.1-2.6c3-0.1,3.3-0.7,3.5-1.3c0.1-0.3-0.2-0.5-0.5-0.5
		c0.1-0.1,0.2-0.2,0.3-0.3c0.9-0.7-3.6-36.5-4.1-40.1c-0.5-3.6-2.3-5.8-3.5-7.3c-1.1-1.6-1.4-3.7-1.4-6c-0.1-2.2-0.8-17.1-1.3-20.1
		l0.4-0.1l-0.3-1.1l2-2.8l0.3,1.2l1.6-1.8l-0.4-1.5l2.4-3.3c0,0,0.3-0.6,0.5-1.3c0.2-0.8-0.2-1.5-0.2-1.5l-15.3-64.2l2.2-0.5
		c0-0.2-0.1-0.3-0.1-0.5c0.1-0.1,0.2-0.3,0.2-0.6l0,0c0,0.1,0.1,0.1,0.2,0.1l0.3-0.1l0.1,0.4c0,0.2,0.2,0.3,0.4,0.3l0.6-0.1l0.3,1.3
		l1.3-0.3l-0.8-0.7l-0.3,0.1l-0.1-0.5c0.1-0.1,0.1-0.2,0.1-0.3l-0.4-1.6c0-0.1-0.1-0.2-0.2-0.3l-2.5-10.4c0.3-0.2,0.5-0.6,0.4-0.9
		c-0.1-0.4-0.5-0.7-0.9-0.7l-1-4.2c-0.1-0.5-0.6-0.7-1-0.6l-1.9,0.5l-0.4-1.7l0.3-0.1c0.5-0.1,0.7-0.6,0.6-1l-0.3-1.1
		c0.2-0.2,0.3-0.5,0.2-0.8l-8-29.3c-0.1-0.4-0.4-0.6-0.8-0.6l-0.2-0.7c-0.1-0.5-0.6-0.7-1-0.6l-0.1,0l-1.1-4.5l-0.6,0.1l-4.8-20.1
		c-3.6-1-8.6-2.3-9.9-8l-0.7,0.2l-4.5-18.9l0.8-0.2l8-6.5l2.6-0.6c0.5-0.1,0.7-0.6,0.6-1l-0.9-3.6c-0.1-0.5-0.6-0.7-1-0.6l-10.9,2.6
		l-0.2-0.9l-0.8,0.2l-0.3-1.1l-0.8,0.2l-0.2-0.6l0.5-0.1l-0.7-3.1C192.7,7.6,190.8,5.3,190,3.4C190,3.4,190,3.4,190,3.4z
		 M200.5,20.1c-0.5,0.1-0.9-0.2-1-0.6l-1-4.3c-0.1-0.5,0.2-0.9,0.6-1l2.3-0.5c0.5-0.1,0.9,0.2,1,0.6l0.6,2.5c0.6,2.3-1.6,3.2-2,3.3
		L200.5,20.1z M209.9,58.9l0.1,0l3,12.6l-0.2,0.1l1.1,4.5l-1,0.2l-0.8-3.2l-1.8,0.4l-4.7-19.7l3-0.7L209.9,58.9z M215.3,63.2
		c-0.3,0.1-0.6-0.1-0.7-0.4c-0.1-0.3,0.1-0.6,0.4-0.7c0.3-0.1,0.6,0.1,0.7,0.4C215.8,62.8,215.6,63.1,215.3,63.2z M215.9,65.7
		c-0.3,0.1-0.6-0.1-0.7-0.4c-0.1-0.3,0.1-0.6,0.4-0.7c0.3-0.1,0.6,0.1,0.7,0.4C216.4,65.3,216.2,65.6,215.9,65.7z M216.5,68.2
		c-0.3,0.1-0.6-0.1-0.7-0.4c-0.1-0.3,0.1-0.6,0.4-0.7c0.3-0.1,0.6,0.1,0.7,0.4C217,67.8,216.8,68.2,216.5,68.2z M234.3,127.6
		c-0.7-3.4-0.9-5.7-0.3-8.6l1.9,7.9l-0.6,0.1c-0.2,0-0.3,0.2-0.3,0.4l0.1,0.3l-0.3,0.1c-0.1,0-0.1,0.1-0.1,0.2l0,0
		C234.6,127.8,234.5,127.6,234.3,127.6z M212.8,172.9c0.1,0,0.3,0,0.4,0l7.9-1.9l1.4,7.1l-0.5,0.3l0.4,2.2c-1,1.5-2.9,2.3-3.7,2.3
		c-0.8,0.1-3.4-0.7-4.4-2.8c-0.5-1-1-0.6-0.5,0.4c0.9,1.7,2.9,3.7,5.1,3.6c2.2,0,2.5,0.6,3,1.2c0.2,0.3,0.7,0.8,1.2,1.3l-2.7,0.7
		c-0.4,0.1-0.4,0.5-0.3,1c0,0-0.8-0.8-1.4-0.6c-0.5,0.1-1,0.2-1.6,1.1c-2.5-0.8-3.7-1.8-4-3.1c-0.4-1.7-1.3-5.9-1.9-8.5
		C210.7,175.4,211.6,173.9,212.8,172.9z M214.5,81.7l-0.6-2.6l0.9-0.2l0.6,2.6l0.4-0.1c0.5-0.1,0.9,0.2,1,0.6l1.9,7.8
		c0.1,0.5-0.2,0.9-0.6,1l-0.4,0.1l1.4,5.9l0.4-0.1c0.5-0.1,0.9,0.2,1,0.6l1.9,7.8c0.1,0.5-0.2,0.9-0.6,1l-0.4,0.1l0.2,0.9l-0.9,0.2
		l-0.2-0.9l-0.3,0.1c-0.5,0.1-0.9-0.2-1-0.6l-1.9-7.8c-0.1-0.5,0.2-0.9,0.6-1l0.3-0.1l-1.4-5.9l-0.3,0.1c-0.5,0.1-0.9-0.2-1-0.6
		l-1.9-7.8c-0.1-0.5,0.2-0.9,0.6-1L214.5,81.7z M199.8,54.2l0.2-0.1l0.2,0.9l1.4-0.3l4.7,19.7l-0.9,0.2l0.6,2.6l-0.7,0.2L199.8,54.2
		z M193.6,24.6l0.7-0.2l4.5,18.9l-0.9,0.2l1.7,7.2l-0.5,0.1l0.3,1.3l-0.2,0.1l-7.6-31.8l0.9-0.2L193.6,24.6z"/>
</g>
</svg>
